<?xml version="1.0" standalone="no"?>
<!DOCTYPE svg PUBLIC "-//W3C//DTD SVG 20010904//EN"
 "http://www.w3.org/TR/2001/REC-SVG-20010904/DTD/svg10.dtd">
<svg version="1.0" xmlns="http://www.w3.org/2000/svg"
 width="512.000000pt" height="512.000000pt" viewBox="0 0 512.000000 512.000000"
 preserveAspectRatio="xMidYMid meet">
<metadata>
Created by potrace 1.14, written by Peter Selinger 2001-2017
</metadata>
<g transform="translate(0.000000,512.000000) scale(0.100000,-0.100000)"
fill="#000000" stroke="none">
<path d="M420 5096 c-214 -62 -362 -220 -409 -436 -7 -29 -10 -769 -11 -2100
0 -2281 -5 -2116 68 -2254 42 -81 134 -179 206 -221 27 -16 78 -40 115 -54
l66 -26 2078 -2 c2005 -2 2081 -1 2152 17 213 54 363 208 422 431 3 13 7 953
8 2089 2 1687 0 2077 -11 2130 -41 201 -205 372 -411 429 -71 19 -108 19
-2135 19 l-2063 0 -75 -22z m1131 -288 c0 -7 2 -298 2 -645 1 -415 -1 -634 -8
-636 -5 -1 -287 -2 -625 -2 l-615 1 0 549 c0 518 1 552 19 588 33 66 104 126
176 147 14 5 256 8 538 9 407 1 512 -1 513 -11z m1634 -628 c1 -349 0 -639 -2
-645 -2 -7 -230 -9 -661 -9 -361 1 -660 2 -663 3 -7 1 -9 1272 -2 1284 2 4
302 6 666 5 l662 -3 0 -635z m1460 620 c61 -24 116 -75 147 -138 l23 -47 1
-542 c2 -403 -1 -543 -10 -544 -43 -4 -1316 -3 -1317 1 -1 3 -2 294 -3 648
l-1 642 555 -1 c521 0 558 -2 605 -19z m-3094 -1600 c1 -33 1 -1259 0 -1285
-1 -20 -5 -21 -624 -20 l-622 0 -3 665 -2 666 625 0 625 0 1 -26z m1634 -637
c0 -433 -3 -664 -10 -666 -5 -2 -305 -3 -665 -3 l-655 1 -2 655 c-1 360 0 660
2 665 2 7 219 11 666 10 l664 0 0 -662z m1631 0 c1 -365 -1 -664 -5 -664 -3
-1 -302 -2 -663 -3 -442 -1 -658 2 -659 9 -3 19 -5 1310 -3 1315 1 3 301 5
666 5 l663 0 1 -662z m-3271 -972 c7 -1 9 -217 8 -629 0 -345 -2 -635 -2 -645
-1 -17 -27 -18 -529 -15 -525 3 -527 3 -569 26 -62 33 -118 96 -137 154 -14
44 -16 118 -16 582 l0 531 618 -1 c339 -1 622 -2 627 -3z m1636 -11 c1 -8 2
-300 3 -647 l1 -633 -666 0 -665 0 -1 645 c0 570 2 644 15 647 9 2 307 3 664
3 569 0 648 -2 649 -15z m1636 -530 c-2 -530 -3 -546 -23 -590 -26 -56 -74
-103 -133 -133 l-46 -22 -565 0 -565 0 0 640 c-1 352 2 642 6 645 4 3 304 5
667 5 l660 0 -1 -545z"/>
</g>
</svg>
